<?xml version="1.0" encoding="UTF-8" standalone="no"?>
<svg width="134px" height="36px" viewBox="0 0 134 36" version="1.1" xmlns="http://www.w3.org/2000/svg" xmlns:xlink="http://www.w3.org/1999/xlink">
    <!-- Generator: Sketch 3.8.3 (29802) - http://www.bohemiancoding.com/sketch -->
    <title>Group 20 Copy 2</title>
    <desc>Created with Sketch.</desc>
    <defs></defs>
    <g id="Page-1" stroke="none" stroke-width="1" fill="none" fill-rule="evenodd">
        <g id="Group-21-Copy-2" transform="translate(-214.000000, -497.000000)">
            <g id="Group-20-Copy-2" transform="translate(214.000000, 497.000000)">
                <rect id="Rectangle-3" fill="#000000" x="97.5189873" y="0" width="36" height="36"></rect>
                <rect id="Rectangle-3-Copy" fill="#FFFFFF" x="0" y="0" width="97.5189873" height="36"></rect>
                <polygon id="Shape" fill="#FFFFFF" points="108 8.20253165 122.65519 8.20253165 122.65519 14.8192405 116.147848 14.8192405 116.147848 15.9402532 121.342785 15.9402532 121.342785 20.9164557 116.147848 20.9164557 116.147848 27.9979747 108 27.9979747"></polygon>
                <g id="club-fail-logo-copy" transform="translate(10.025316, 8.202532)" fill="#000000">
                    <g id="Layer_1">
                        <g id="Group-19">
                            <path d="M11.5382278,0 C13.7802532,0 16.0951899,0.492151899 17.3620253,1.14835443 L17.3620253,8.43949367 C15.8396007,7.64858403 14.1557274,7.21826084 12.4405063,7.18177215 C9.65164557,7.18177215 8.1478481,8.52151899 8.1478481,10.3716456 C8.1478481,12.2217722 9.65164557,13.5159494 12.4405063,13.5159494 C14.1939594,13.4978402 15.9158097,13.0470284 17.4531646,12.2035443 L17.4531646,19.1756962 C16.1681013,19.8592405 13.8075949,20.4060759 11.4379747,20.4060759 C4.83949367,20.396962 0,16.076962 0,10.198481 C0,4.32 4.8121519,0 11.5382278,0 L11.5382278,0 Z" id="Shape"></path>
                            <polygon id="Shape" points="20.2556962 0.300759494 28.4035443 0.300759494 28.4035443 13.0602532 34.5281013 13.0602532 34.5281013 20.0962025 20.2556962 20.0962025"></polygon>
                            <path d="M35.9316456,11.1007595 L35.9316456,0.300759494 L44.0794937,0.300759494 L44.0794937,10.5539241 C44.0794937,12.4131646 44.6810127,13.7437975 46.5675949,13.7437975 C48.3903797,13.7437975 49.0010127,12.595443 49.0010127,10.5994937 L49.0010127,0.300759494 L56.3286076,0.300759494 L56.3286076,10.9913924 C56.3286076,14.0263291 55.563038,15.9402532 54.5058228,17.1979747 C52.683038,19.3853165 49.4202532,20.3878481 46.0572152,20.3878481 C42.5848101,20.3878481 39.5225316,19.2941772 37.7726582,17.2435443 C36.8065823,16.1043038 35.9316456,14.3270886 35.9316456,11.1007595 L35.9316456,11.1007595 Z" id="Shape"></path>
                            <path d="M59.1265823,0.300759494 L67.0556962,0.300759494 C70.0359494,0.300759494 76.324557,0.601518987 76.324557,5.31341772 C76.324557,6.98126582 75.5316456,8.50329114 73.3443038,9.27797468 L73.3443038,9.33265823 C76.2151899,10.3989873 76.8713924,12.2582278 76.8713924,14.035443 C76.8713924,19.2577215 71.2936709,20.0779747 67.438481,20.0779747 L59.1265823,20.0779747 L59.1265823,0.300759494 L59.1265823,0.300759494 Z M67.5751899,8.33924051 C68.6141772,8.33924051 69.1063291,7.79240506 69.1063291,7.10886076 C69.1063291,6.42531646 68.5868354,5.87848101 67.5751899,5.87848101 L67.2744304,5.87848101 L67.2744304,8.33924051 L67.5751899,8.33924051 L67.5751899,8.33924051 Z M67.6298734,14.7918987 C68.9149367,14.7918987 69.5164557,14.1083544 69.5164557,13.2607595 C69.5164557,12.4131646 68.8875949,11.7296203 67.6298734,11.7296203 L67.2744304,11.7296203 L67.2744304,14.7918987 L67.6298734,14.7918987 L67.6298734,14.7918987 Z" id="Shape"></path>
                        </g>
                    </g>
                </g>
            </g>
        </g>
    </g>
</svg>