<svg id="Layer_1" data-name="Layer 1" xmlns="http://www.w3.org/2000/svg" viewBox="0 0 329.38 44.76"><title>club-fail-logo</title><path d="M25.32,0c4.92,0,10,1.08,12.78,2.52v16a24.56,24.56,0,0,0-10.8-2.76c-6.12,0-9.42,2.94-9.42,7s3.3,6.9,9.42,6.9a23.37,23.37,0,0,0,11-2.88v15.3c-2.82,1.5-8,2.7-13.2,2.7C10.62,44.76,0,35.28,0,22.38S10.56,0,25.32,0Z"/><path d="M44.45,0.66H62.33v28H75.77V44.1H44.45V0.66Z"/><path d="M78.85,24.36V0.66H96.73v22.5c0,4.08,1.32,7,5.46,7,4,0,5.34-2.52,5.34-6.9V0.66h16.08V24.12c0,6.66-1.68,10.86-4,13.62-4,4.8-11.16,7-18.54,7-7.62,0-14.34-2.4-18.18-6.9C80.77,35.34,78.85,31.44,78.85,24.36Z"/><path d="M129.75,0.66h17.4c6.54,0,20.34.66,20.34,11,0,3.66-1.74,7-6.54,8.7v0.12c6.3,2.34,7.74,6.42,7.74,10.32,0,11.46-12.24,13.26-20.7,13.26H129.75V0.66ZM148.29,18.3c2.28,0,3.36-1.2,3.36-2.7s-1.14-2.7-3.36-2.7h-0.66v5.4h0.66Zm0.12,14.16c2.82,0,4.14-1.5,4.14-3.36s-1.38-3.36-4.14-3.36h-0.78v6.72h0.78Z"/><path d="M190.53,0.66h32.16V15.18H208.41v2.46h11.4V28.56h-11.4V44.1H190.53V0.66Z"/><path d="M237.75,0.66h17.1L271.41,44.1H252.09l-1.5-5.7h-10L239,44.1H221.19Zm10,26.82-1.92-8.82h-0.12l-1.92,8.82h4Z"/><path d="M273.87,0.66h17.88V44.1H273.87V0.66Z"/><path d="M298.06,0.66h17.88v28h13.44V44.1H298.06V0.66Z"/></svg>